# Blender v3.0.1 OBJ File: 'Polyfjord_Chess_Set.blend'
# www.blender.org
o Chess_Board_Plane.001
v -9.999999 0.000000 -10.000000
v -10.000000 0.000000 9.999999
v 10.000000 0.000000 -9.999999
v 9.999999 0.000000 10.000000
v 7.500000 0.000000 -9.999999
v 5.000000 0.000000 -10.000000
v 2.500000 0.000000 -10.000000
v 0.000000 0.000000 -10.000000
v -2.500000 0.000000 -10.000000
v -5.000000 0.000000 -10.000000
v -7.500000 0.000000 -10.000000
v -9.999999 0.000000 -7.500000
v -10.000000 0.000000 -5.000000
v -10.000000 0.000000 -2.500000
v -10.000000 0.000000 -0.000000
v -10.000000 0.000000 2.500000
v -10.000000 0.000000 5.000000
v -10.000000 0.000000 7.500000
v -7.500000 0.000000 9.999999
v -5.000000 0.000000 10.000000
v -2.500000 0.000000 10.000000
v -0.000000 0.000000 10.000000
v 2.500000 0.000000 10.000000
v 5.000000 0.000000 10.000000
v 7.500000 0.000000 10.000000
v 9.999999 0.000000 7.500000
v 10.000000 0.000000 5.000000
v 10.000000 0.000000 2.500000
v 10.000000 0.000000 0.000000
v 10.000000 0.000000 -2.500000
v 10.000000 0.000000 -5.000000
v 10.000000 0.000000 -7.500000
v -7.500000 0.000000 -7.500000
v -5.000000 0.000000 -7.500000
v -2.500000 0.000000 -7.500000
v 0.000000 0.000000 -7.500000
v 2.500000 0.000000 -7.500000
v 5.000000 0.000000 -7.500000
v 7.500000 0.000000 -7.500000
v -7.500000 0.000000 -5.000000
v -5.000000 0.000000 -5.000000
v -2.500000 0.000000 -5.000000
v 0.000000 0.000000 -5.000000
v 2.500000 0.000000 -5.000000
v 5.000000 0.000000 -5.000000
v 7.500000 0.000000 -5.000000
v -7.500000 0.000000 -2.500000
v -5.000000 0.000000 -2.500000
v -2.500000 0.000000 -2.500000
v 0.000000 0.000000 -2.500000
v 2.500000 0.000000 -2.500000
v 5.000000 0.000000 -2.500000
v 7.500000 0.000000 -2.500000
v -7.500000 0.000000 -0.000000
v -5.000000 0.000000 -0.000000
v -2.500000 0.000000 -0.000000
v 0.000000 0.000000 0.000000
v 2.500000 0.000000 0.000000
v 5.000000 0.000000 0.000000
v 7.500000 0.000000 0.000000
v -7.500000 0.000000 2.500000
v -5.000000 0.000000 2.500000
v -2.500000 0.000000 2.500000
v -0.000000 0.000000 2.500000
v 2.500000 0.000000 2.500000
v 5.000000 0.000000 2.500000
v 7.500000 0.000000 2.500000
v -7.500000 0.000000 5.000000
v -5.000000 0.000000 5.000000
v -2.500000 0.000000 5.000000
v -0.000000 0.000000 5.000000
v 2.500000 0.000000 5.000000
v 5.000000 0.000000 5.000000
v 7.500000 0.000000 5.000000
v -7.500000 0.000000 7.500000
v -5.000000 0.000000 7.500000
v -2.500000 0.000000 7.500000
v -0.000000 0.000000 7.500000
v 2.500000 0.000000 7.500000
v 5.000000 0.000000 7.500000
v 7.500000 0.000000 7.500000
v -9.999999 -0.261745 -10.000000
v -10.000000 -0.261745 9.999999
v 10.000000 -0.261745 -9.999999
v 9.999999 -0.261745 10.000000
v 7.500000 -0.261745 -9.999999
v 5.000000 -0.261745 -10.000000
v 2.500000 -0.261745 -10.000000
v 0.000000 -0.261745 -10.000000
v -2.500000 -0.261745 -10.000000
v -5.000000 -0.261745 -10.000000
v -7.500000 -0.261745 -10.000000
v -9.999999 -0.261745 -7.500000
v -10.000000 -0.261745 -5.000000
v -10.000000 -0.261745 -2.500000
v -10.000000 -0.261745 -0.000000
v -10.000000 -0.261745 2.500000
v -10.000000 -0.261745 5.000000
v -10.000000 -0.261745 7.500000
v -7.500000 -0.261745 9.999999
v -5.000000 -0.261745 10.000000
v -2.500000 -0.261745 10.000000
v -0.000000 -0.261745 10.000000
v 2.500000 -0.261745 10.000000
v 5.000000 -0.261745 10.000000
v 7.500000 -0.261745 10.000000
v 9.999999 -0.261745 7.500000
v 10.000000 -0.261745 5.000000
v 10.000000 -0.261745 2.500000
v 10.000000 -0.261745 0.000000
v 10.000000 -0.261745 -2.500000
v 10.000000 -0.261745 -5.000000
v 10.000000 -0.261745 -7.500000
vn 0.0000 1.0000 0.0000
vn -1.0000 0.0000 0.0000
vn 1.0000 0.0000 0.0000
vn 0.0000 0.0000 -1.0000
vn 0.0000 0.0000 1.0000
vn 0.0000 -1.0000 0.0000
s off
f 25//1 26//1 81//1
f 39//1 31//1 32//1
f 60//1 30//1 53//1
f 74//1 28//1 67//1
f 12//1 11//1 1//1
f 34//1 9//1 10//1
f 36//1 7//1 8//1
f 38//1 5//1 6//1
f 40//1 34//1 33//1
f 42//1 36//1 35//1
f 44//1 38//1 37//1
f 14//1 40//1 13//1
f 48//1 42//1 41//1
f 50//1 44//1 43//1
f 52//1 46//1 45//1
f 54//1 48//1 47//1
f 56//1 50//1 49//1
f 58//1 52//1 51//1
f 16//1 54//1 15//1
f 62//1 56//1 55//1
f 64//1 58//1 57//1
f 66//1 60//1 59//1
f 68//1 62//1 61//1
f 70//1 64//1 63//1
f 72//1 66//1 65//1
f 17//1 75//1 68//1
f 76//1 70//1 69//1
f 78//1 72//1 71//1
f 80//1 74//1 73//1
f 19//1 76//1 75//1
f 21//1 78//1 77//1
f 23//1 80//1 79//1
f 16//2 98//2 17//2
f 32//3 84//3 3//3
f 30//3 112//3 31//3
f 17//2 99//2 18//2
f 3//4 86//4 5//4
f 31//3 113//3 32//3
f 2//5 100//5 19//5
f 5//4 87//4 6//4
f 19//5 101//5 20//5
f 6//4 88//4 7//4
f 20//5 102//5 21//5
f 7//4 89//4 8//4
f 21//5 103//5 22//5
f 8//4 90//4 9//4
f 22//5 104//5 23//5
f 9//4 91//4 10//4
f 23//5 105//5 24//5
f 10//4 92//4 11//4
f 24//5 106//5 25//5
f 1//2 93//2 12//2
f 4//3 107//3 26//3
f 12//2 94//2 13//2
f 26//3 108//3 27//3
f 13//2 95//2 14//2
f 11//4 82//4 1//4
f 27//3 109//3 28//3
f 14//2 96//2 15//2
f 18//2 83//2 2//2
f 28//3 110//3 29//3
f 15//2 97//2 16//2
f 25//5 85//5 4//5
f 29//3 111//3 30//3
f 108//6 107//6 106//6
f 25//1 4//1 26//1
f 39//1 46//1 31//1
f 60//1 29//1 30//1
f 74//1 27//1 28//1
f 12//1 33//1 11//1
f 34//1 35//1 9//1
f 36//1 37//1 7//1
f 38//1 39//1 5//1
f 40//1 41//1 34//1
f 42//1 43//1 36//1
f 44//1 45//1 38//1
f 14//1 47//1 40//1
f 48//1 49//1 42//1
f 50//1 51//1 44//1
f 52//1 53//1 46//1
f 54//1 55//1 48//1
f 56//1 57//1 50//1
f 58//1 59//1 52//1
f 16//1 61//1 54//1
f 62//1 63//1 56//1
f 64//1 65//1 58//1
f 66//1 67//1 60//1
f 68//1 69//1 62//1
f 70//1 71//1 64//1
f 72//1 73//1 66//1
f 17//1 18//1 75//1
f 76//1 77//1 70//1
f 78//1 79//1 72//1
f 80//1 81//1 74//1
f 19//1 20//1 76//1
f 21//1 22//1 78//1
f 23//1 24//1 80//1
f 16//2 97//2 98//2
f 32//3 113//3 84//3
f 30//3 111//3 112//3
f 17//2 98//2 99//2
f 3//4 84//4 86//4
f 31//3 112//3 113//3
f 2//5 83//5 100//5
f 5//4 86//4 87//4
f 19//5 100//5 101//5
f 6//4 87//4 88//4
f 20//5 101//5 102//5
f 7//4 88//4 89//4
f 21//5 102//5 103//5
f 8//4 89//4 90//4
f 22//5 103//5 104//5
f 9//4 90//4 91//4
f 23//5 104//5 105//5
f 10//4 91//4 92//4
f 24//5 105//5 106//5
f 1//2 82//2 93//2
f 4//3 85//3 107//3
f 12//2 93//2 94//2
f 26//3 107//3 108//3
f 13//2 94//2 95//2
f 11//4 92//4 82//4
f 27//3 108//3 109//3
f 14//2 95//2 96//2
f 18//2 99//2 83//2
f 28//3 109//3 110//3
f 15//2 96//2 97//2
f 25//5 106//5 85//5
f 29//3 110//3 111//3
f 82//6 92//6 93//6
f 92//6 91//6 93//6
f 90//6 89//6 95//6
f 89//6 88//6 111//6
f 90//6 95//6 94//6
f 88//6 87//6 112//6
f 93//6 91//6 94//6
f 91//6 90//6 94//6
f 98//6 97//6 102//6
f 97//6 96//6 103//6
f 111//6 88//6 112//6
f 96//6 95//6 89//6
f 96//6 89//6 110//6
f 86//6 84//6 113//6
f 87//6 86//6 113//6
f 110//6 89//6 111//6
f 100//6 83//6 99//6
f 99//6 98//6 100//6
f 100//6 98//6 101//6
f 87//6 113//6 112//6
f 102//6 101//6 98//6
f 105//6 104//6 108//6
f 104//6 103//6 109//6
f 109//6 103//6 110//6
f 103//6 102//6 97//6
f 96//6 110//6 103//6
f 109//6 108//6 104//6
f 107//6 85//6 106//6
f 106//6 105//6 108//6
f 39//1 3//1 5//1
f 53//1 31//1 46//1
f 67//1 29//1 60//1
f 74//1 26//1 27//1
f 33//1 10//1 11//1
f 35//1 8//1 9//1
f 37//1 6//1 7//1
f 12//1 40//1 33//1
f 41//1 35//1 34//1
f 43//1 37//1 36//1
f 38//1 46//1 39//1
f 47//1 41//1 40//1
f 49//1 43//1 42//1
f 44//1 52//1 45//1
f 15//1 47//1 14//1
f 55//1 49//1 48//1
f 57//1 51//1 50//1
f 59//1 53//1 52//1
f 61//1 55//1 54//1
f 63//1 57//1 56//1
f 65//1 59//1 58//1
f 17//1 61//1 16//1
f 62//1 70//1 63//1
f 71//1 65//1 64//1
f 73//1 67//1 66//1
f 68//1 76//1 69//1
f 77//1 71//1 70//1
f 79//1 73//1 72//1
f 2//1 75//1 18//1
f 20//1 77//1 76//1
f 22//1 79//1 78//1
f 24//1 81//1 80//1
f 39//1 32//1 3//1
f 53//1 30//1 31//1
f 67//1 28//1 29//1
f 74//1 81//1 26//1
f 33//1 34//1 10//1
f 35//1 36//1 8//1
f 37//1 38//1 6//1
f 12//1 13//1 40//1
f 41//1 42//1 35//1
f 43//1 44//1 37//1
f 38//1 45//1 46//1
f 47//1 48//1 41//1
f 49//1 50//1 43//1
f 44//1 51//1 52//1
f 15//1 54//1 47//1
f 55//1 56//1 49//1
f 57//1 58//1 51//1
f 59//1 60//1 53//1
f 61//1 62//1 55//1
f 63//1 64//1 57//1
f 65//1 66//1 59//1
f 17//1 68//1 61//1
f 62//1 69//1 70//1
f 71//1 72//1 65//1
f 73//1 74//1 67//1
f 68//1 75//1 76//1
f 77//1 78//1 71//1
f 79//1 80//1 73//1
f 2//1 19//1 75//1
f 20//1 21//1 77//1
f 22//1 23//1 79//1
f 24//1 25//1 81//1
