# Blender v2.90.1 OBJ File: 'HumanLowPoly.blend'
# www.blender.org
o Human_Cube.001
v -0.209194 0.938725 0.209194
v -0.209194 1.357112 0.209194
v -0.209194 0.938725 -0.209194
v -0.209194 1.357112 -0.209194
v 0.209194 0.938725 0.209194
v 0.209194 1.357112 0.209194
v 0.209194 0.938725 -0.209194
v 0.209194 1.357112 -0.209194
v -0.259718 0.939960 -0.173528
v -0.259718 0.939960 0.173528
v 0.259718 0.939960 -0.173528
v 0.259718 0.939960 0.173528
v -0.259718 0.414265 -0.173528
v -0.259718 0.414265 0.173528
v 0.259718 0.414265 -0.173528
v 0.259718 0.414265 0.173528
v -0.217042 0.414265 -0.121257
v -0.217042 0.414265 0.121257
v 0.018300 0.414265 -0.121257
v 0.217042 0.414265 0.121257
v 0.217042 0.414265 -0.121257
v -0.018300 0.414265 0.121257
v -0.217042 0.002766 -0.121257
v -0.217042 0.002766 0.121257
v 0.018300 0.002766 -0.121257
v 0.217042 0.002766 0.121257
v 0.217042 0.002766 -0.121257
v 0.018300 0.002766 0.121257
v 0.259718 0.898750 0.107272
v 0.259718 0.898750 -0.107272
v 0.259718 0.740236 0.107272
v 0.259718 0.740236 -0.107272
v -0.259718 0.898750 -0.107272
v -0.259718 0.898750 0.107272
v -0.259718 0.740236 -0.107272
v -0.259718 0.740236 0.107272
v 0.459576 0.898750 0.107272
v 0.459576 0.898750 -0.107272
v 0.459576 0.740236 0.107272
v 0.459576 0.740236 -0.107272
v -0.459576 0.898750 -0.107272
v -0.459576 0.898750 0.107272
v -0.459576 0.740236 -0.107272
v -0.459576 0.740236 0.107272
v 0.259718 0.443337 0.107272
v 0.259718 0.443337 -0.107272
v -0.259718 0.443337 -0.107272
v -0.259718 0.443337 0.107272
v 0.459576 0.443337 0.107272
v 0.459576 0.443337 -0.107272
v -0.459576 0.443337 -0.107272
v -0.459576 0.443337 0.107272
v 0.018300 0.208516 0.121257
v 0.217042 0.208516 0.121257
v 0.018300 0.208516 -0.121257
v -0.217042 0.208516 -0.121257
v 0.217042 0.208516 -0.121257
v -0.217042 0.208516 0.121257
v -0.018300 0.208516 -0.121257
v -0.018300 0.208516 0.121257
v -0.018300 0.002766 0.121257
v -0.018300 0.002766 -0.121257
v 0.018300 0.414265 0.121257
v -0.018300 0.414265 -0.121257
v -0.259718 0.491540 -0.173528
v -0.259718 0.491540 0.173528
v 0.259718 0.491540 0.173528
v 0.259718 0.491540 -0.173528
vn -1.0000 0.0000 0.0000
vn 0.0000 0.0000 -1.0000
vn 1.0000 0.0000 0.0000
vn 0.0000 0.0000 1.0000
vn 0.0000 1.0000 0.0000
vn -0.0000 -1.0000 -0.0000
s off
f 2//1 3//1 1//1
f 4//2 7//2 3//2
f 7//3 6//3 5//3
f 6//4 1//4 5//4
f 4//5 6//5 8//5
f 10//5 11//5 9//5
f 66//4 16//4 67//4
f 54//4 28//4 26//4
f 15//2 65//2 68//2
f 10//4 67//4 12//4
f 68//2 9//2 11//2
f 27//6 28//6 25//6
f 54//3 27//3 57//3
f 56//1 24//1 58//1
f 40//2 46//2 32//2
f 30//2 40//2 32//2
f 67//3 15//3 68//3
f 65//1 14//1 66//1
f 38//3 39//3 40//3
f 41//1 44//1 42//1
f 35//2 41//2 33//2
f 33//5 42//5 34//5
f 31//4 37//4 29//4
f 34//4 44//4 36//4
f 29//5 38//5 30//5
f 35//2 51//2 43//2
f 46//6 49//6 45//6
f 48//6 51//6 47//6
f 32//1 45//1 31//1
f 43//1 52//1 44//1
f 39//3 50//3 40//3
f 31//4 49//4 39//4
f 44//4 48//4 36//4
f 36//3 47//3 35//3
f 7//6 1//6 3//6
f 17//1 58//1 18//1
f 20//3 57//3 21//3
f 55//2 27//2 25//2
f 25//1 53//1 55//1
f 56//2 62//2 23//2
f 62//3 60//3 61//3
f 61//4 58//4 24//4
f 62//6 24//6 23//6
f 12//3 68//3 11//3
f 9//1 66//1 10//1
f 19//1 53//1 63//1
f 57//2 19//2 21//2
f 63//4 54//4 20//4
f 18//4 60//4 22//4
f 22//3 59//3 64//3
f 15//6 14//6 13//6
f 64//2 56//2 17//2
f 2//1 4//1 3//1
f 4//2 8//2 7//2
f 7//3 8//3 6//3
f 6//4 2//4 1//4
f 4//5 2//5 6//5
f 10//5 12//5 11//5
f 66//4 14//4 16//4
f 54//4 53//4 28//4
f 15//2 13//2 65//2
f 10//4 66//4 67//4
f 68//2 65//2 9//2
f 27//6 26//6 28//6
f 54//3 26//3 27//3
f 56//1 23//1 24//1
f 40//2 50//2 46//2
f 30//2 38//2 40//2
f 67//3 16//3 15//3
f 65//1 13//1 14//1
f 38//3 37//3 39//3
f 41//1 43//1 44//1
f 35//2 43//2 41//2
f 33//5 41//5 42//5
f 31//4 39//4 37//4
f 34//4 42//4 44//4
f 29//5 37//5 38//5
f 35//2 47//2 51//2
f 46//6 50//6 49//6
f 48//6 52//6 51//6
f 32//1 46//1 45//1
f 43//1 51//1 52//1
f 39//3 49//3 50//3
f 31//4 45//4 49//4
f 44//4 52//4 48//4
f 36//3 48//3 47//3
f 7//6 5//6 1//6
f 17//1 56//1 58//1
f 20//3 54//3 57//3
f 55//2 57//2 27//2
f 25//1 28//1 53//1
f 56//2 59//2 62//2
f 62//3 59//3 60//3
f 61//4 60//4 58//4
f 62//6 61//6 24//6
f 12//3 67//3 68//3
f 9//1 65//1 66//1
f 19//1 55//1 53//1
f 57//2 55//2 19//2
f 63//4 53//4 54//4
f 18//4 58//4 60//4
f 22//3 60//3 59//3
f 15//6 16//6 14//6
f 64//2 59//2 56//2
